HIERARCHY
ROOT Hips
{
 OFFSET 0.000000 0.000000 0.000000
 CHANNELS 6 Xposition Yposition Zposition Yrotation Xrotation Zrotation
 JOINT Chest
 {
  OFFSET 0.000000 9.585900 0.002600
  CHANNELS 3 Yrotation Xrotation Zrotation
  JOINT Chest2
  {
   OFFSET 0.000000 9.601200 -0.005300
   CHANNELS 3 Yrotation Xrotation Zrotation
   JOINT Chest3
   {
    OFFSET 0.000000 9.561800 0.000000
    CHANNELS 3 Yrotation Xrotation Zrotation
    JOINT Chest4
    {
     OFFSET 0.000000 9.552100 0.000000
     CHANNELS 3 Yrotation Xrotation Zrotation
     JOINT Neck
     {
      OFFSET 0.000000 14.453000 0.000000
      CHANNELS 3 Yrotation Xrotation Zrotation
      JOINT Head
      {
       OFFSET 0.000000 8.936500 -0.011300
       CHANNELS 3 Yrotation Xrotation Zrotation
       End Site
       {
        OFFSET 0.000000 17.073600 -0.006000
       }
      }
     }
     JOINT RightCollar
     {
      OFFSET -2.921100 9.558500 0.000000
      CHANNELS 3 Yrotation Xrotation Zrotation
      JOINT RightShoulder
      {
       OFFSET -13.519700 0.000000 0.000000
       CHANNELS 3 Yrotation Xrotation Zrotation
       JOINT RightElbow
       {
        OFFSET 0.000000 -29.696600 0.000000
        CHANNELS 3 Yrotation Xrotation Zrotation
        JOINT RightWrist
        {
         OFFSET 0.000000 -24.004700 0.000000
         CHANNELS 3 Yrotation Xrotation Zrotation
         End Site
         {
          OFFSET 0.000000 -17.728500 0.000000
         }
        }
       }
      }
     }
     JOINT LeftCollar
     {
      OFFSET 2.921100 9.558500 0.000000
      CHANNELS 3 Yrotation Xrotation Zrotation
      JOINT LeftShoulder
      {
       OFFSET 13.519700 0.000000 0.000000
       CHANNELS 3 Yrotation Xrotation Zrotation
       JOINT LeftElbow
       {
        OFFSET 0.000000 -29.696600 0.000000
        CHANNELS 3 Yrotation Xrotation Zrotation
        JOINT LeftWrist
        {
         OFFSET 0.000000 -24.004700 0.000000
         CHANNELS 3 Yrotation Xrotation Zrotation
         End Site
         {
          OFFSET 0.000000 -17.728500 0.000000
         }
        }
       }
      }
     }
    }
   }
  }
 }
 JOINT RightHip
 {
  OFFSET -7.771700 -0.012900 -0.001300
  CHANNELS 3 Yrotation Xrotation Zrotation
  JOINT RightKnee
  {
   OFFSET 0.000000 -40.869800 0.001200
   CHANNELS 3 Yrotation Xrotation Zrotation
   JOINT RightAnkle
   {
    OFFSET 0.000000 -39.717900 0.002100
    CHANNELS 3 Yrotation Xrotation Zrotation
    JOINT RightToe
    {
     OFFSET 0.000000 -4.965400 11.033500
     CHANNELS 3 Yrotation Xrotation Zrotation
     End Site
     {
      OFFSET 0.000000 -1.423100 5.872300
     }
    }
   }
  }
 }
 JOINT LeftHip
 {
  OFFSET 7.771700 -0.012900 -0.001300
  CHANNELS 3 Yrotation Xrotation Zrotation
  JOINT LeftKnee
  {
   OFFSET 0.000000 -40.869800 0.001200
   CHANNELS 3 Yrotation Xrotation Zrotation
   JOINT LeftAnkle
   {
    OFFSET 0.000000 -39.717900 0.002100
    CHANNELS 3 Yrotation Xrotation Zrotation
    JOINT LeftToe
    {
     OFFSET 0.000000 -4.965400 11.033500
     CHANNELS 3 Yrotation Xrotation Zrotation
     End Site
     {
      OFFSET 0.000000 -1.423100 5.872300
     }
    }
   }
  }
 }
}
MOTION
Frames: 11
Frame Time: 0.008333
-51.272405 52.868224 -13.787061 -178.352130 -17.533689 -2.242215 0.875609 16.775823 0.714242 0.082523 1.729057 0.072970 0.138021 2.884945 0.137357 0.799873 14.800737 0.734913 -3.125994 17.068254 0.241193 -3.356959 -7.740437 0.966571 0.405905 -2.174476 3.057120 -2.618631 -8.644548 -6.312471 -59.213794 -67.295884 89.471022 -5.964273 11.162222 0.243664 -5.835027 -3.250388 0.310835 5.216813 -5.142683 9.387363 66.417569 -54.994370 -104.948273 3.157587 8.431814 4.782084 1.878313 -61.281736 11.463609 176.526333 86.707146 174.496310 -11.990136 -22.727682 12.907192 0.008727 0.030291 -0.041068 5.116722 -59.513332 -3.116731 120.439834 77.776582 118.750729 -6.559786 -20.119901 -0.908590 0.012867 0.129810 0.008465
-51.274553 52.870971 -13.789056 -178.372790 -17.550671 -2.238834 0.883969 16.777925 0.736502 0.090800 1.740660 0.066614 0.134847 2.880128 0.132700 0.805084 14.807038 0.735354 -3.441370 17.089027 0.215058 -3.689256 -7.701469 1.003124 0.496484 -2.080620 3.008819 -2.636533 -9.063834 -6.504768 -57.657883 -65.624684 87.786746 -6.313933 11.155572 0.853619 -5.791156 -3.335135 0.331707 5.284671 -5.100305 9.325030 66.459942 -55.026136 -104.958159 3.146330 8.440862 4.788228 1.873110 -61.258898 11.484989 176.503567 86.712115 174.470979 -12.079336 -22.738224 12.942360 0.006602 0.037219 -0.042884 5.130238 -59.494738 -3.114142 120.431022 77.771486 118.743642 -6.558265 -20.118982 -0.910233 0.008477 0.121460 0.006655
-51.276342 52.873251 -13.790240 -178.385967 -17.560520 -2.243295 0.894619 16.781858 0.747407 0.077057 1.726427 0.076933 0.140747 2.888224 0.127667 0.814537 14.814624 0.735735 -3.754179 17.121093 0.199130 -4.016066 -7.648996 1.053941 0.558923 -2.006278 2.964486 -2.622046 -9.535933 -6.725508 -56.159948 -63.677105 86.137043 -6.717508 11.150448 1.467823 -5.774958 -3.391808 0.340754 5.382613 -5.085438 9.272213 66.516669 -55.049165 -104.991045 3.140623 8.433147 4.795254 1.851402 -61.242213 11.505616 176.341645 86.715655 174.298167 -12.089124 -22.752699 12.966043 0.007847 0.036871 -0.047951 5.127923 -59.484369 -3.104002 120.418366 77.765098 118.736511 -6.556566 -20.121543 -0.916150 0.006621 0.119511 0.006641
-51.278802 52.875149 -13.791087 -178.395547 -17.566394 -2.248089 0.900097 16.781760 0.756063 0.068635 1.724630 0.075432 0.148571 2.891372 0.128396 0.813270 14.808468 0.743541 -4.055197 17.167654 0.187730 -4.333114 -7.587282 1.114686 0.615403 -1.927966 2.911821 -2.606838 -10.087918 -6.951835 -54.742515 -61.442953 84.562206 -7.194133 11.147290 2.051038 -5.760771 -3.415269 0.337673 5.483844 -5.102984 9.225918 66.586411 -55.062321 -105.038041 3.143713 8.414177 4.803626 1.829873 -61.229668 11.509592 175.972409 86.715118 173.913022 -12.023047 -22.771866 12.975954 0.012317 0.030796 -0.054898 5.123227 -59.478194 -3.096216 120.433674 77.770412 118.757802 -6.548205 -20.120491 -0.919307 0.011155 0.115640 0.005109
-51.281889 52.876687 -13.791783 -178.402907 -17.569414 -2.252407 0.894192 16.778718 0.759328 0.068055 1.723674 0.071668 0.156251 2.895160 0.131927 0.805480 14.804868 0.746713 -4.339566 17.212746 0.186436 -4.640747 -7.520543 1.183264 0.669260 -1.857228 2.854978 -2.601234 -10.714553 -7.177612 -53.531929 -58.966971 83.214044 -7.812720 11.169145 2.519973 -5.739637 -3.510124 0.350608 5.575559 -5.057496 9.175583 66.668186 -55.069126 -105.090653 3.157066 8.385749 4.813172 1.810865 -61.219454 11.494766 175.439134 86.712842 173.355751 -11.862326 -22.799986 12.971589 0.020290 0.021559 -0.064310 5.118465 -59.474238 -3.090942 120.416349 77.765250 118.742159 -6.544522 -20.121516 -0.921086 0.008485 0.115376 0.003974
-51.283838 52.878148 -13.793124 -178.423946 -17.574953 -2.261105 0.888552 16.769899 0.756601 0.083168 1.728573 0.076125 0.153923 2.896451 0.133888 0.788118 14.785774 0.743879 -4.593891 17.276889 0.193167 -4.937878 -7.449141 1.258044 0.734667 -1.771181 2.796423 -2.606509 -11.405807 -7.407438 -52.579621 -56.322049 82.155787 -8.616744 11.218549 2.775020 -5.709198 -3.598417 0.364582 5.662514 -5.005941 9.132067 66.759350 -55.074643 -105.141108 3.174642 8.349175 4.822007 1.790342 -61.211068 11.537922 175.682665 86.721482 173.617465 -11.965122 -22.801598 12.996354 0.013968 0.028822 -0.059878 5.111370 -59.469973 -3.066988 120.410404 77.755742 118.739830 -6.545365 -20.124267 -0.925225 0.007006 0.113427 0.003532
-51.282725 52.879824 -13.795977 -178.435346 -17.587479 -2.291554 0.898732 16.774832 0.784582 0.078542 1.723289 0.074118 0.156992 2.897884 0.134680 0.781885 14.775263 0.741134 -4.846604 17.335221 0.210530 -5.219668 -7.371967 1.335971 0.779431 -1.697444 2.741452 -2.619991 -12.147852 -7.647713 -51.769428 -53.532043 81.237476 -9.560681 11.221335 2.813172 -5.698288 -3.673497 0.381772 5.738676 -4.983323 9.096983 66.859002 -55.081154 -105.186301 3.188139 8.316495 4.824618 1.720348 -61.197581 11.652778 176.932779 86.735680 174.916764 -12.217432 -22.788775 13.035910 -0.000350 0.043136 -0.049681 5.062811 -59.460787 -3.003957 120.427645 77.756314 118.773160 -6.543001 -20.098516 -0.943936 0.016933 0.083287 0.008092
-51.289373 52.880182 -13.796745 -178.440216 -17.585749 -2.276108 0.894828 16.770686 0.767317 0.069628 1.714771 0.070261 0.153273 2.894231 0.133441 0.777872 14.764808 0.738017 -5.082771 17.396441 0.232032 -5.485319 -7.291723 1.414694 0.811852 -1.647817 2.716012 -2.621546 -12.907534 -7.932657 -51.097694 -50.615650 80.426061 -10.612834 11.113512 2.669264 -5.682133 -3.695871 0.391291 5.795653 -5.021855 9.073788 66.968696 -55.090947 -105.228006 3.195456 8.294134 4.820874 1.722218 -61.194399 11.630331 176.872822 86.733962 174.848088 -12.180244 -22.804703 13.048701 0.002399 0.037329 -0.059204 5.092231 -59.460510 -3.042320 120.425251 77.753982 118.779082 -6.555399 -20.124302 -0.946842 0.039140 0.107044 0.009859
-51.292585 52.880523 -13.798371 -178.450477 -17.587843 -2.277237 0.887892 16.758374 0.759332 0.082530 1.724930 0.075618 0.123168 2.860851 0.120796 0.804473 14.788968 0.747286 -5.315697 17.442098 0.256019 -5.740920 -7.213963 1.493669 0.853104 -1.601391 2.639344 -2.648087 -13.708553 -8.184752 -50.634713 -47.621428 79.792808 -11.757215 10.868936 2.367585 -5.677278 -3.729722 0.400379 5.839051 -5.074059 9.061861 67.090109 -55.106345 -105.269858 3.198717 8.278839 4.819675 1.709442 -61.187396 11.607787 176.293611 86.725311 174.236178 -11.926985 -22.841067 13.037185 0.016272 0.021675 -0.078400 5.106474 -59.458777 -3.065182 120.384109 77.738304 118.750172 -6.537999 -20.123995 -0.948990 0.014709 0.110246 0.002448
-51.291917 52.880886 -13.800881 -178.466116 -17.594177 -2.296414 0.884958 16.743825 0.765379 0.089928 1.729917 0.079760 0.133497 2.867315 0.124749 0.801645 14.784721 0.746362 -5.533829 17.484114 0.280673 -5.990969 -7.139951 1.571768 0.901500 -1.583038 2.554803 -2.673937 -14.504045 -8.443244 -50.349042 -44.626255 79.293207 -12.979612 10.507151 2.010765 -5.674074 -3.877962 0.432540 5.876217 -5.025182 9.052497 67.215837 -55.124474 -105.308420 3.197343 8.271878 4.821036 1.667376 -61.175678 11.634605 175.898800 86.722826 173.818010 -11.729026 -22.872314 13.033444 0.026559 0.013614 -0.092155 5.081775 -59.455953 -3.023749 120.413065 77.733877 118.790586 -6.538738 -20.132254 -0.959896 0.022115 0.111356 0.005531
-51.292061 52.880790 -13.803039 -178.483685 -17.597604 -2.305546 0.903525 16.744036 0.778310 0.077144 1.705288 0.070833 0.144267 2.886088 0.132040 0.800988 14.746941 0.743683 -5.740813 17.556526 0.302518 -6.234774 -7.066704 1.647426 0.951973 -1.559986 2.484284 -2.690972 -15.285816 -8.716159 -50.189097 -41.700656 78.850280 -14.274667 10.099535 1.743134 -5.667015 -3.947423 0.454614 5.907310 -5.038440 9.061153 67.333384 -55.142215 -105.337291 3.189208 8.274059 4.815314 1.643588 -61.168658 11.642027 175.463647 86.717668 173.363428 -11.581809 -22.905393 13.041817 -0.019750 0.013669 -0.122562 5.081184 -59.453568 -3.017271 120.404468 77.719672 118.799186 -6.527721 -20.142805 -0.971950 0.020409 0.114082 0.002213
